<svg xmlns="http://www.w3.org/2000/svg" width="26.894" height="12.637" viewBox="0 0 26.894 12.637">
  <g id="up-arrow" transform="translate(26.894 0) rotate(90)">
    <path id="Tracé_32" data-name="Tracé 32" d="M7.874.273a1.29,1.29,0,0,0-1.586,0A34.122,34.122,0,0,0,.018,9.047c-.151.455.68.909,1.36.636A16.31,16.31,0,0,0,5.306,7.365c-.3,6.365-1.737,12.956.755,19.23.151.455,1.435.364,1.36-.091-1.36-6.5-.3-12.956-.151-19.457,1.284.682,2.568,1.364,3.777,2.046.529.318,1.662.136,1.586-.409A17.186,17.186,0,0,0,7.874.273Zm-.831,5.41C6.59,5.273,5.306,5.364,5.306,6v.091C4.4,6.637,3.568,7.183,2.586,7.728a36.905,36.905,0,0,1,4.457-6,15.9,15.9,0,0,1,3.248,5.546c-.831-.455-1.737-.909-2.568-1.409A.735.735,0,0,0,7.043,5.683Z" fill="#929c72"/>
  </g>
</svg>
