<svg xmlns="http://www.w3.org/2000/svg" width="269.409" height="130.952" viewBox="0 0 269.409 130.952">
  <g id="déco_footer_feuille_volante" data-name="déco footer feuille volante" transform="translate(-802.944 -1667.003) rotate(-23)">
    <g id="Groupe_13" data-name="Groupe 13" transform="matrix(0.695, -0.719, 0.719, 0.695, 242.795, 1971.395)">
      <path id="Tracé_9" data-name="Tracé 9" d="M15.211,61.334c-.271.518,15.211-13.73,15.211-30.667S15.211,0,15.211,0,0,13.73,0,30.667,15.482,60.816,15.211,61.334Z" transform="translate(68.339 30.674) rotate(120)" fill="#c0ce3c"/>
      <path id="Tracé_13" data-name="Tracé 13" d="M0,61.334c-.271.518,15.211-13.73,15.211-30.667S0,0,0,0A146.357,146.357,0,0,1,3.237,30.505C3.237,47.442.274,60.816,0,61.334Z" transform="translate(60.736 43.844) rotate(120)" fill="#b1c612"/>
    </g>
    <g id="Groupe_15" data-name="Groupe 15" transform="translate(36.013 1939.525) rotate(-4)">
      <path id="Tracé_9-2" data-name="Tracé 9" d="M15.211,61.334c-.271.518,15.211-13.73,15.211-30.667S15.211,0,15.211,0,0,13.73,0,30.667,15.482,60.816,15.211,61.334Z" transform="translate(68.339 30.674) rotate(120)" fill="#c0ce3c"/>
      <path id="Tracé_13-2" data-name="Tracé 13" d="M0,61.334c-.271.518,15.211-13.73,15.211-30.667S0,0,0,0A146.357,146.357,0,0,1,3.237,30.505C3.237,47.442.274,60.816,0,61.334Z" transform="translate(60.736 43.844) rotate(120)" fill="#b1c612"/>
    </g>
    <g id="petit_trait" data-name="petit trait" transform="matrix(-0.809, 0.588, -0.588, -0.809, 325.306, 1980.326)">
      <path id="Tracé_25" data-name="Tracé 25" d="M0,7.68S16.3-4.969,25.077,2.2" transform="translate(1.334 0.912) rotate(10)" fill="none" stroke="#707070" stroke-width="1"/>
      <path id="Tracé_26" data-name="Tracé 26" d="M0,2.213a15.149,15.149,0,0,1,15.65,0" transform="translate(7.764 0)" fill="none" stroke="#707070" stroke-width="1"/>
    </g>
    <g id="trait_vent" data-name="trait vent" transform="matrix(1, -0.017, 0.017, 1, 118.17, 1964.386)">
      <path id="Tracé_27" data-name="Tracé 27" d="M0,.926a10,10,0,0,1,8.356,0" transform="translate(47.568 8.492) rotate(-33)" fill="none" stroke="#707070" stroke-width="1"/>
      <path id="Tracé_28" data-name="Tracé 28" d="M0,1.182a18.486,18.486,0,0,1,12.944,0" transform="matrix(-0.719, 0.695, -0.695, -0.719, 99.651, 20.494)" fill="none" stroke="#707070" stroke-width="1"/>
      <path id="Tracé_29" data-name="Tracé 29" d="M0,.76a12.929,12.929,0,0,1,3.149-.7,11.829,11.829,0,0,1,5.458.7" transform="translate(17.147 25.89) rotate(-155)" fill="none" stroke="#707070" stroke-width="1"/>
      <path id="Tracé_22" data-name="Tracé 22" d="M5.43,15.9S6.6,18.954,18.772,22.1c6.431,1.662,14.271-.3,24.644-5.853C72.15.85,39.051-3.3,42.813,19.963c1.878,11.607,22.555,12.215,36.019,6.731,12.981-5.287,14.956-12.756,14.956-12.756" transform="translate(4.543 2.859)" fill="none" stroke="#707070" stroke-width="1"/>
    </g>
  </g>
</svg>
