<svg id="Calque_1" data-name="Calque 1" xmlns="http://www.w3.org/2000/svg" xmlns:xlink="http://www.w3.org/1999/xlink" viewBox="0 0 162.8382 31.3269"><defs><style>.cls-1{fill:#c0ce3a;}.cls-2{fill:url(#Dégradé_sans_nom_39);}.cls-3{fill:url(#Dégradé_sans_nom_38);}.cls-4{fill:#ecf283;}.cls-5{fill:url(#Dégradé_sans_nom_42);}.cls-6{fill:#d7dd54;}.cls-7{fill:url(#Dégradé_sans_nom_18);}.cls-8{fill:url(#Dégradé_sans_nom_20);}.cls-9{fill:#56a8a4;}</style><linearGradient id="Dégradé_sans_nom_39" x1="22.9736" y1="20.2842" x2="36.2558" y2="20.2842" gradientUnits="userSpaceOnUse"><stop offset="0" stop-color="#c0ce3a"/><stop offset="0.2388" stop-color="#bdcd33"/><stop offset="0.5826" stop-color="#b6c920"/><stop offset="0.9884" stop-color="#aac201"/><stop offset="1" stop-color="#aac200"/></linearGradient><linearGradient id="Dégradé_sans_nom_38" x1="9.2301" y1="20.6021" x2="22.9734" y2="20.6021" gradientUnits="userSpaceOnUse"><stop offset="0" stop-color="#aac200"/><stop offset="0.0116" stop-color="#aac201"/><stop offset="0.4174" stop-color="#b6c920"/><stop offset="0.7612" stop-color="#bdcd33"/><stop offset="1" stop-color="#c0ce3a"/></linearGradient><linearGradient id="Dégradé_sans_nom_42" x1="23.0262" y1="16.0699" x2="27.086" y2="16.0699" gradientUnits="userSpaceOnUse"><stop offset="0" stop-color="#d7dd54"/><stop offset="1" stop-color="#ecf283"/></linearGradient><linearGradient id="Dégradé_sans_nom_18" x1="16.5987" y1="19.3295" x2="23.7156" y2="16.2917" gradientUnits="userSpaceOnUse"><stop offset="0" stop-color="#c0ce3a"/><stop offset="1" stop-color="#d7dd54"/></linearGradient><linearGradient id="Dégradé_sans_nom_20" x1="23.268" y1="16.6331" x2="28.0935" y2="19.4192" gradientUnits="userSpaceOnUse"><stop offset="0" stop-color="#d7dd54"/><stop offset="1" stop-color="#c0ce3a"/></linearGradient></defs><path class="cls-1" d="M33.1758,22.2188a13.647,13.647,0,0,1-10.201,5.025l-.0007-.0712A13.6785,13.6785,0,0,1,36.2558,13.3958v.0065A13.62,13.62,0,0,1,33.1758,22.2188Z" transform="translate(-3.7585 -6.4896)"/><path class="cls-2" d="M36.2558,13.3958v.0065c-1.6742,3.0423-6.7975,11.4736-13.2817,13.77A13.6785,13.6785,0,0,1,36.2558,13.3958Z" transform="translate(-3.7585 -6.4896)"/><path class="cls-1" d="M22.9734,27.2424l-.0834.0007A13.6784,13.6784,0,0,1,9.1254,13.962c.0349-.0007.07-.0007.1047-.0007A13.6781,13.6781,0,0,1,22.9734,27.2424Z" transform="translate(-3.7585 -6.4896)"/><path class="cls-3" d="M22.9734,27.2424l-.0834.0007C15.4145,24.7769,10.4472,16.2445,9.23,13.9613A13.6781,13.6781,0,0,1,22.9734,27.2424Z" transform="translate(-3.7585 -6.4896)"/><path class="cls-4" d="M23.0262,25.65l-.025.0242A13.68,13.68,0,0,1,23.2989,6.501L23.311,6.49A13.6795,13.6795,0,0,1,23.0262,25.65Z" transform="translate(-3.7585 -6.4896)"/><path class="cls-5" d="M23.0262,25.65,23.2989,6.501,23.311,6.49A13.6795,13.6795,0,0,1,23.0262,25.65Z" transform="translate(-3.7585 -6.4896)"/><path class="cls-6" d="M22.5218,27.18l-.03.0634a13.6786,13.6786,0,0,1-6.4-17.8161q.0726-.1635.1495-.3248A13.6789,13.6789,0,0,1,22.5218,27.18Z" transform="translate(-3.7585 -6.4896)"/><path class="cls-7" d="M22.5218,27.18a32.1506,32.1506,0,0,1-6.43-17.7527q.0726-.1635.1495-.3248A13.6789,13.6789,0,0,1,22.5218,27.18Z" transform="translate(-3.7585 -6.4896)"/><path class="cls-6" d="M30.6575,19.3388a13.6474,13.6474,0,0,1-8.1749,7.905l-.0114-.0335A13.68,13.68,0,0,1,30.89,9.9967l.0036.01A13.6258,13.6258,0,0,1,30.6575,19.3388Z" transform="translate(-3.7585 -6.4896)"/><path class="cls-8" d="M30.8939,10.0067A29.598,29.598,0,0,1,22.4712,27.21,13.68,13.68,0,0,1,30.89,9.9967Z" transform="translate(-3.7585 -6.4896)"/><path class="cls-1" d="M7.356,26.4812l.656,1.1857a18.21,18.21,0,0,1-1.6673-1.0324c-.3314-.23-.631-.4537-.8963-.663a5.98,5.98,0,0,1-.132-3.2215A33.8545,33.8545,0,0,0,7.356,26.4812Z" transform="translate(-3.7585 -6.4896)"/><path class="cls-1" d="M10.6328,28.7843a13.1768,13.1768,0,0,1-1.9146-.754L7.7747,26.325A5.1392,5.1392,0,0,1,7.6888,23.98,17.83,17.83,0,0,0,10.6328,28.7843Z" transform="translate(-3.7585 -6.4896)"/><path class="cls-1" d="M22.9569,37.8165S20.614,32.9833,15.28,32.7824a13.2467,13.2467,0,0,1-3.7018-.6553c-2.8036-.9365-6.9838-2.9945-7.8193-7.0807l.0546.0509c.1938.181.8849.8163,1.7679,1.5324l.0015.0012c.0693.0563.14.1127.2112.17l-.0122-.0236q.1167.0846.2359.1684A15.4693,15.4693,0,0,0,11.2328,29.4l.0019.0018q.2763.0564.5561.1a10.7216,10.7216,0,0,0,4.049.0162s-1.0235-1.3666-5.4506-1.9755C10.3892,27.543,23.5046,26.1646,22.9569,37.8165Z" transform="translate(-3.7585 -6.4896)"/><path class="cls-1" d="M3.8131,25.0973c.1938.181.8849.8163,1.7679,1.5324A12.87,12.87,0,0,1,3.8131,25.0973Z" transform="translate(-3.7585 -6.4896)"/><path class="cls-1" d="M39.0364,26.4812l-.656,1.1857a18.21,18.21,0,0,0,1.6673-1.0324c.3313-.23.631-.4537.8963-.663a5.9813,5.9813,0,0,0,.132-3.2215A33.8744,33.8744,0,0,1,39.0364,26.4812Z" transform="translate(-3.7585 -6.4896)"/><path class="cls-1" d="M35.76,28.7843a13.1768,13.1768,0,0,0,1.9146-.754l.9435-1.7053a5.1392,5.1392,0,0,0,.0859-2.3452A17.83,17.83,0,0,1,35.76,28.7843Z" transform="translate(-3.7585 -6.4896)"/><path class="cls-1" d="M23.4355,37.8165s2.3429-4.8332,7.6773-5.0341a13.2474,13.2474,0,0,0,3.7018-.6553c2.8036-.9365,6.9837-2.9945,7.8193-7.0807l-.0546.0509c-.1938.181-.8849.8163-1.7679,1.5324l-.0015.0012c-.0693.0563-.14.1127-.2112.17l.0122-.0236q-.1167.0846-.2359.1684A15.4693,15.4693,0,0,1,35.16,29.4l-.0019.0018q-.2765.0564-.5561.1a10.7216,10.7216,0,0,1-4.049.0162s1.0235-1.3666,5.4506-1.9755C36.0032,27.543,22.8878,26.1646,23.4355,37.8165Z" transform="translate(-3.7585 -6.4896)"/><path class="cls-1" d="M42.5793,25.0973c-.1938.181-.8849.8163-1.7679,1.5324A12.87,12.87,0,0,0,42.5793,25.0973Z" transform="translate(-3.7585 -6.4896)"/><path class="cls-9" d="M58.1973,11.4263v20.396H55.6318V11.4263Z" transform="translate(-3.7585 -6.4896)"/><path class="cls-9" d="M75.5034,31.8223H72.938V29.5547a4.9942,4.9942,0,0,1-4.6206,2.6074,7.086,7.086,0,0,1-5.2085-2.1328,7.0422,7.0422,0,0,1,0-10.0986,7.0971,7.0971,0,0,1,5.2085-2.126,5.005,5.005,0,0,1,4.6206,2.58v-8.958h2.5654ZM72.938,26.0107V23.9414a4.8388,4.8388,0,0,0-4.6206-3.8691A4.513,4.513,0,0,0,65.001,21.49,4.78,4.78,0,0,0,63.5977,24.99a4.7161,4.7161,0,0,0,1.4033,3.4727,4.7156,4.7156,0,0,0,7.937-2.4522Z" transform="translate(-3.7585 -6.4896)"/><path class="cls-9" d="M80.124,24.9482v.042a4.7158,4.7158,0,0,0,1.4029,3.4727,4.605,4.605,0,0,0,6.6469-.0283q.1992-.1978.7657-.8926l2.41.8506a7.8241,7.8241,0,0,1-1.248,1.6015,7.4436,7.4436,0,0,1-10.4668.0352,7.0422,7.0422,0,0,1,0-10.0986,7.4689,7.4689,0,0,1,10.4668.0283,6.7708,6.7708,0,0,1,1.8574,4.9892Zm.4531-2.24h8.49q-.9068-2.636-4.2236-2.6362Q81.5126,20.0723,80.5771,22.7085Z" transform="translate(-3.7585 -6.4896)"/><path class="cls-9" d="M108.0469,31.8223h-2.5655V29.5547a4.9954,4.9954,0,0,1-4.621,2.6074,7.0862,7.0862,0,0,1-5.209-2.1328,7.0434,7.0434,0,0,1,0-10.0986,7.0972,7.0972,0,0,1,5.209-2.126,5.0061,5.0061,0,0,1,4.621,2.58V18.8677h2.5655Zm-2.5655-5.8116V23.9414a4.84,4.84,0,0,0-4.621-3.8691A4.5134,4.5134,0,0,0,97.5439,21.49,4.7807,4.7807,0,0,0,96.1406,24.99a4.7165,4.7165,0,0,0,1.4033,3.4727,4.7162,4.7162,0,0,0,7.9375-2.4522Z" transform="translate(-3.7585 -6.4896)"/><path class="cls-9" d="M113.4326,11.4263v20.396h-2.5654V11.4263Z" transform="translate(-3.7585 -6.4896)"/><path class="cls-9" d="M133.8564,13.6519H125.14V11.4263h12.8409l-10.4883,18.17h11.0557v2.2256H123.3818Z" transform="translate(-3.7585 -6.4896)"/><path class="cls-9" d="M142.1055,24.9482v.042a4.7161,4.7161,0,0,0,1.4033,3.4727,4.6056,4.6056,0,0,0,6.6474-.0283q.1978-.1978.7647-.8926l2.41.8506a7.821,7.821,0,0,1-1.2481,1.6015,7.4436,7.4436,0,0,1-10.4668.0352,7.0434,7.0434,0,0,1,0-10.0986,7.4689,7.4689,0,0,1,10.4668.0283,6.77,6.77,0,0,1,1.8574,4.9892Zm.4531-2.24h8.49q-.9068-2.636-4.2236-2.6362Q143.4942,20.0723,142.5586,22.7085Z" transform="translate(-3.7585 -6.4896)"/><path class="cls-9" d="M158.4189,22.1558v9.6665h-2.5654V18.8677h2.5654a3.7082,3.7082,0,0,1,2.6924-.709,5.3492,5.3492,0,0,1,3.9551,1.5024,5.0958,5.0958,0,0,1,1.53,3.6709v8.49h-2.5508v-8.377a2.9314,2.9314,0,0,0-.8936-2.1894,2.8325,2.8325,0,0,0-4.039-.05A3.2087,3.2087,0,0,0,158.4189,22.1558Z" transform="translate(-3.7585 -6.4896)"/></svg>